<mxfile host="app.diagrams.net" modified="2022-05-25T05:10:14.915Z" agent="5.0 (X11)" etag="-b7wD8SDH8rqjENMYF-a" version="18.1.2" type="github">
  <diagram id="wSy9EoRu6R7qOKstvvgF" name="Page-1">
    <mxGraphModel dx="1422" dy="793" grid="1" gridSize="10" guides="1" tooltips="1" connect="1" arrows="1" fold="1" page="1" pageScale="1" pageWidth="827" pageHeight="1169" math="0" shadow="0">
      <root>
        <mxCell id="0" />
        <mxCell id="1" parent="0" />
        <mxCell id="lpKNqAgPPwhEun3-b6AQ-1" value="Block" style="rounded=0;whiteSpace=wrap;html=1;" vertex="1" parent="1">
          <mxGeometry x="260" y="150" width="120" height="60" as="geometry" />
        </mxCell>
      </root>
    </mxGraphModel>
  </diagram>
</mxfile>
